<svg xmlns="http://www.w3.org/2000/svg" width="804.422" height="976" viewBox="0 0 804.422 976">
  <g id="Group_18" data-name="Group 18" transform="translate(0)">
    <path id="Path_10" data-name="Path 10" d="M870.111,1028.876c.623,1.349,1.351,2.665,1.87,3.98a187.429,187.429,0,0,0,45,55.382,76.186,76.186,0,0,0,6.23,4.847,52.659,52.659,0,0,0,4.5,3.808,249.429,249.429,0,0,0,25.615,15.921,12.3,12.3,0,0,0,3.114,1.385c5.193,2.423,10.384,4.5,15.229,6.576,2.77,1.037,5.539,2.425,7.963,3.46a69.5,69.5,0,0,0,7.959,2.425,41.113,41.113,0,0,1,3.808,1.729c2.423.693,4.154,1.039,4.845,1.387a69.886,69.886,0,0,0,7.961,2.421c14.192,3.809,26.653,6.576,37.73,7.27,10.382.693,19.383,1.383,26.653.346,6.576-.346,13.152-.346,18.343-.346a180.436,180.436,0,0,0,73.034-15.231,200.934,200.934,0,0,0,61.267-41.88,217.622,217.622,0,0,0,25.268-30.806l.346-.348a36.679,36.679,0,0,0,2.424-3.806,14.121,14.121,0,0,1,1.729-3.116c11.078-19.731,38.424-75.458,14.54-123.571,0-.348-.346-.348-.346-.692.346,11.421-.694,21.114-2.77,28.728a19.924,19.924,0,0,1-1.383,4.847c-12.117,39.807-49.5,48.8-69.574,50.537a91.557,91.557,0,0,1-10.04.69h-3.113c-42.23,0-79.612-9-111.458-28.382-27.344-16.269-52.612-38.768-75.457-67.149-3.462-4.5-7.268-9.347-10.73-14.192-7.961,8.653-16.614,18.346-25.615,29.767-1.729,2.077-3.46,4.5-5.537,6.576-7.27,9-15.229,18.345-24.23,28.038-11.076,11.769-24.23,23.193-39.459,34.96-2.631,2.32-5.608,4.326-8.584,6.645-97.921,60.955-315.329,49.081-317.753,48.84l-1.246,20.734c2.837.174,22.43,1.248,51.437,1.248C676.689,1071.9,793.892,1065.981,870.111,1028.876Z" transform="translate(-547.926 -895.095)" fill="#fe5f55"/>
    <path id="Path_11" data-name="Path 11" d="M1298.225,1470.418c-10.281-.726-15.126-7.961-15.126-20.734V1239.233c0-6.922,1.039-12.115,3.808-15.575a75.979,75.979,0,0,1,10.384-11.076l64.381-51.574-8.307-10.73c-7.27,4.5-14.536,8.653-21.805,13.151-7.618,4.5-13.846,6.924-19.385,6.924-5.193,0-15.575-4.847-31.152-14.883-15.577-9.691-28.038-22.153-36.691-37.037-6.922-10.384-12.461-19.731-16.614-27.344-4.152-7.27-9.692-16.614-16.613-27a10.69,10.69,0,0,1-3.116-5.191c-.348-2.077-2.077-3.116-4.847-3.116-1.729,0-2.767,1.387-3.114,3.464a9.35,9.35,0,0,1-3.462,5.883c-23.191,38.422-46.728,68.189-70.266,89.994-22.5,19.731-46.035,31.5-70.957,34.268-1.04,0-1.731.346-2.768.346a43.427,43.427,0,0,0-4.847.346h-1.349v-220.8c-7.962-1.039-17.308-2.422-27.344-4.156a383.273,383.273,0,0,1-50.885-13.5c-17.652-5.191-34.96-12.115-52.61-19.729a312.89,312.89,0,0,1-41.19-22.5H873.31v279.61c-28.315-2.873-42.61-19.037-42.61-49.117V934.98l-5.191-33.229a378.1,378.1,0,0,1-46.729,25.959,500.565,500.565,0,0,1-50.535,19.039,408.545,408.545,0,0,1-48.806,12.807c-15.231,2.768-28.384,4.5-39.114,4.5H570.059V984.13h57.111a90.375,90.375,0,0,1,22.5,2.424c5.193,2.077,7.961,8.653,7.961,20.077v143.647c0,10.73-3.114,19.383-9,25.267-6.578,6.23-11.771,11.076-16.271,14.536l-74.419,61.267,12.115,14.538,34.614-26.653c2.423-1.731,7.27-3.114,13.5-4.5a89.1,89.1,0,0,1,16.96-2.077c20.077,0,38.766,11.076,54.343,32.883,16.267,21.805,32.881,45.689,50.535,72.342,15.923-38.076,37.383-69.574,64.727-94.5,21.53-19.625,44.513-31.292,68.571-36.274V1381.39c-4.362-.864-8.758-1.661-12.877-2.421-2.906-.416-5.917-1.142-8.514-1.626a67.721,67.721,0,0,0-8.307-.625c-1.488-.382-2.91-.415-4.085-.866a44.146,44.146,0,0,1-5.019-.309,75.418,75.418,0,0,0-8.309-.625c-14.673-.589-27.447-.589-38.42,1.177-10.281,1.592-19.211,2.874-26.064,5.5-6.334,1.764-12.772,3.183-17.826,4.326a180.156,180.156,0,0,0-67.944,30.841,200.516,200.516,0,0,0-50.608,54.274,216.853,216.853,0,0,0-17.929,35.583l-.277.414a34.957,34.957,0,0,0-1.523,4.259,13.387,13.387,0,0,1-1.005,3.391c-6.505,21.669-20.976,82.035,12.843,123.777.069.313.415.244.485.59-2.841-11.078-3.947-20.768-3.567-28.626a18.638,18.638,0,0,1,.277-5.053c3.116-41.467,37.625-58.428,56.836-64.518a96.008,96.008,0,0,1,9.658-2.874l3.011-.692c41.225-9.207,79.681-8.621,114.985,3.323,20.111,6.61,39.91,16.337,59.327,28.661,4.293,2.663,8.55,5.434,12.74,8.447,1.592,1.106,3.151,2.318,4.708,3.46a301.411,301.411,0,0,1,53.1,51.954c3.46,4.5,7.27,9.347,10.73,14.192,7.96-8.653,16.614-18.346,25.614-29.767,1.731-2.079,3.462-4.5,5.539-6.576,7.268-9,15.231-18.347,24.228-28.038,11.077-11.769,24.23-23.193,39.461-34.96,2.768-2.422,5.883-4.5,9-6.922a19.039,19.039,0,0,1,4.847-3.116c100.378-57.459,310.483-45.692,312.56-45.692l1.385-20.766C1359.043,1471.388,1333.913,1470.038,1298.225,1470.418Zm-250.5-268.22c2.77,0,5.193-.346,7.616-.346a57.152,57.152,0,0,1,7.961.69,56.372,56.372,0,0,1,28.73,11.078c12.115,9,18,23.536,18,42.919v190.375c-3.115-2.421-6.231-5.189-10.036-8.305l-.693-.348a9.305,9.305,0,0,1-2.768-2.421,59.063,59.063,0,0,0-4.845-3.462c-4.847-3.462-5.541-4.153-14.54-8.655l-6.574-2.769c-5.193-2.421-10.386-4.5-15.231-6.576-3.116-1.351-5.988-2.214-8.964-3.288V1202.336C1046.827,1202.3,1047.278,1202.2,1047.727,1202.2Z" transform="translate(-557.944 -671.329)" fill="#fe5f55"/>
  </g>
</svg>
